<svg id="visual" viewBox="0 0 900 1800" width="900" height="1800" xmlns="http://www.w3.org/2000/svg" xmlns:xlink="http://www.w3.org/1999/xlink" version="1.1"><rect x="0" y="0" width="900" height="1800" fill="#161616"></rect><defs><linearGradient id="grad1_0" x1="0%" y1="0%" x2="100%" y2="100%"><stop offset="30%" stop-color="#fbae3c" stop-opacity="1"></stop><stop offset="70%" stop-color="#fbae3c" stop-opacity="1"></stop></linearGradient></defs><defs><linearGradient id="grad1_1" x1="0%" y1="0%" x2="100%" y2="100%"><stop offset="30%" stop-color="#fbae3c" stop-opacity="1"></stop><stop offset="70%" stop-color="#805c2c" stop-opacity="1"></stop></linearGradient></defs><defs><linearGradient id="grad1_2" x1="0%" y1="0%" x2="100%" y2="100%"><stop offset="30%" stop-color="#161616" stop-opacity="1"></stop><stop offset="70%" stop-color="#805c2c" stop-opacity="1"></stop></linearGradient></defs><defs><linearGradient id="grad2_0" x1="0%" y1="0%" x2="100%" y2="100%"><stop offset="30%" stop-color="#fbae3c" stop-opacity="1"></stop><stop offset="70%" stop-color="#fbae3c" stop-opacity="1"></stop></linearGradient></defs><defs><linearGradient id="grad2_1" x1="0%" y1="0%" x2="100%" y2="100%"><stop offset="30%" stop-color="#805c2c" stop-opacity="1"></stop><stop offset="70%" stop-color="#fbae3c" stop-opacity="1"></stop></linearGradient></defs><defs><linearGradient id="grad2_2" x1="0%" y1="0%" x2="100%" y2="100%"><stop offset="30%" stop-color="#805c2c" stop-opacity="1"></stop><stop offset="70%" stop-color="#161616" stop-opacity="1"></stop></linearGradient></defs><g transform="translate(900, 0)"><path d="M0 855C-75.4 850.8 -150.7 846.6 -221.3 825.9C-291.9 805.1 -357.6 767.9 -419 725.7C-480.4 683.5 -537.3 636.4 -578.4 578.4C-619.5 520.4 -644.7 451.5 -672.9 388.5C-701.1 325.5 -732.2 268.2 -763.1 204.5C-793.9 140.7 -824.5 70.3 -855 0L0 0Z" fill="#493722"></path><path d="M0 570C-50.2 567.2 -100.5 564.4 -147.5 550.6C-194.6 536.8 -238.4 511.9 -279.3 483.8C-320.2 455.7 -358.2 424.3 -385.6 385.6C-413 346.9 -429.8 301 -448.6 259C-467.4 217 -488.2 178.8 -508.7 136.3C-529.3 93.8 -549.6 46.9 -570 0L0 0Z" fill="#bc8435"></path><path d="M0 285C-25.1 283.6 -50.2 282.2 -73.8 275.3C-97.3 268.4 -119.2 256 -139.7 241.9C-160.1 227.8 -179.1 212.1 -192.8 192.8C-206.5 173.5 -214.9 150.5 -224.3 129.5C-233.7 108.5 -244.1 89.4 -254.4 68.2C-264.6 46.9 -274.8 23.4 -285 0L0 0Z" fill="#fbae3c"></path></g><g transform="translate(0, 1800)"><path d="M0 -855C75.1 -841.1 150.2 -827.2 213 -795C275.8 -762.7 326.3 -712.1 394.5 -683.3C462.7 -654.5 548.5 -647.6 604.6 -604.6C660.7 -561.5 687 -482.4 712.7 -411.5C738.5 -340.6 763.6 -278.1 787.2 -210.9C810.8 -143.7 832.9 -71.9 855 0L0 0Z" fill="#493722"></path><path d="M0 -570C50.1 -560.7 100.1 -551.5 142 -530C183.9 -508.5 217.6 -474.7 263 -455.5C308.4 -436.4 365.7 -431.7 403.1 -403.1C440.4 -374.4 458 -321.6 475.2 -274.3C492.3 -227.1 509.1 -185.4 524.8 -140.6C540.6 -95.8 555.3 -47.9 570 0L0 0Z" fill="#bc8435"></path><path d="M0 -285C25 -280.4 50.1 -275.7 71 -265C91.9 -254.2 108.8 -237.4 131.5 -227.8C154.2 -218.2 182.8 -215.9 201.5 -201.5C220.2 -187.2 229 -160.8 237.6 -137.2C246.2 -113.5 254.5 -92.7 262.4 -70.3C270.3 -47.9 277.6 -24 285 0L0 0Z" fill="#fbae3c"></path></g></svg>