<svg id="visual" viewBox="0 0 960 350" width="960" height="350" xmlns="http://www.w3.org/2000/svg" xmlns:xlink="http://www.w3.org/1999/xlink" version="1.1"><rect x="0" y="0" width="960" height="350" fill="#001220"></rect><path d="M0 167L20 162.5C40 158 80 149 120 151.2C160 153.3 200 166.7 240 186.7C280 206.7 320 233.3 360 248.7C400 264 440 268 480 268.2C520 268.3 560 264.7 600 249.8C640 235 680 209 720 187.3C760 165.7 800 148.3 840 149.3C880 150.3 920 169.7 940 179.3L960 189L960 351L940 351C920 351 880 351 840 351C800 351 760 351 720 351C680 351 640 351 600 351C560 351 520 351 480 351C440 351 400 351 360 351C320 351 280 351 240 351C200 351 160 351 120 351C80 351 40 351 20 351L0 351Z" fill="#fa7268"></path><path d="M0 263L20 266C40 269 80 275 120 278C160 281 200 281 240 273C280 265 320 249 360 245.2C400 241.3 440 249.7 480 255.3C520 261 560 264 600 267.8C640 271.7 680 276.3 720 261.3C760 246.3 800 211.7 840 212.2C880 212.7 920 248.3 940 266.2L960 284L960 351L940 351C920 351 880 351 840 351C800 351 760 351 720 351C680 351 640 351 600 351C560 351 520 351 480 351C440 351 400 351 360 351C320 351 280 351 240 351C200 351 160 351 120 351C80 351 40 351 20 351L0 351Z" fill="#fd857a"></path><path d="M0 182L20 184.5C40 187 80 192 120 195.5C160 199 200 201 240 210C280 219 320 235 360 231.3C400 227.7 440 204.3 480 206.2C520 208 560 235 600 237.8C640 240.7 680 219.3 720 204.5C760 189.7 800 181.3 840 186C880 190.7 920 208.3 940 217.2L960 226L960 351L940 351C920 351 880 351 840 351C800 351 760 351 720 351C680 351 640 351 600 351C560 351 520 351 480 351C440 351 400 351 360 351C320 351 280 351 240 351C200 351 160 351 120 351C80 351 40 351 20 351L0 351Z" fill="#fe978c"></path><path d="M0 208L20 218.8C40 229.7 80 251.3 120 255.7C160 260 200 247 240 235.8C280 224.7 320 215.3 360 212.5C400 209.7 440 213.3 480 228.7C520 244 560 271 600 279.2C640 287.3 680 276.7 720 260.2C760 243.7 800 221.3 840 220.8C880 220.3 920 241.7 940 252.3L960 263L960 351L940 351C920 351 880 351 840 351C800 351 760 351 720 351C680 351 640 351 600 351C560 351 520 351 480 351C440 351 400 351 360 351C320 351 280 351 240 351C200 351 160 351 120 351C80 351 40 351 20 351L0 351Z" fill="#ffa99e"></path><path d="M0 284L20 277.3C40 270.7 80 257.3 120 250.3C160 243.3 200 242.7 240 245.5C280 248.3 320 254.7 360 265.3C400 276 440 291 480 291.5C520 292 560 278 600 274.8C640 271.7 680 279.3 720 287.5C760 295.7 800 304.3 840 304.5C880 304.7 920 296.3 940 292.2L960 288L960 351L940 351C920 351 880 351 840 351C800 351 760 351 720 351C680 351 640 351 600 351C560 351 520 351 480 351C440 351 400 351 360 351C320 351 280 351 240 351C200 351 160 351 120 351C80 351 40 351 20 351L0 351Z" fill="#ffbab1"></path><path d="M0 321L20 319.7C40 318.3 80 315.7 120 306.5C160 297.3 200 281.7 240 270.8C280 260 320 254 360 258.2C400 262.3 440 276.7 480 280.8C520 285 560 279 600 275.8C640 272.7 680 272.3 720 268.5C760 264.7 800 257.3 840 260C880 262.7 920 275.3 940 281.7L960 288L960 351L940 351C920 351 880 351 840 351C800 351 760 351 720 351C680 351 640 351 600 351C560 351 520 351 480 351C440 351 400 351 360 351C320 351 280 351 240 351C200 351 160 351 120 351C80 351 40 351 20 351L0 351Z" fill="#ffcbc4"></path><path d="M0 276L20 276.2C40 276.3 80 276.7 120 274.3C160 272 200 267 240 265C280 263 320 264 360 267.7C400 271.3 440 277.7 480 285.8C520 294 560 304 600 306.5C640 309 680 304 720 301.8C760 299.7 800 300.3 840 299.5C880 298.7 920 296.3 940 295.2L960 294L960 351L940 351C920 351 880 351 840 351C800 351 760 351 720 351C680 351 640 351 600 351C560 351 520 351 480 351C440 351 400 351 360 351C320 351 280 351 240 351C200 351 160 351 120 351C80 351 40 351 20 351L0 351Z" fill="#ffddd7"></path><path d="M0 309L20 306.8C40 304.7 80 300.3 120 303.3C160 306.3 200 316.7 240 315.2C280 313.7 320 300.3 360 294.2C400 288 440 289 480 295.5C520 302 560 314 600 319.5C640 325 680 324 720 324.7C760 325.3 800 327.7 840 326.2C880 324.7 920 319.3 940 316.7L960 314L960 351L940 351C920 351 880 351 840 351C800 351 760 351 720 351C680 351 640 351 600 351C560 351 520 351 480 351C440 351 400 351 360 351C320 351 280 351 240 351C200 351 160 351 120 351C80 351 40 351 20 351L0 351Z" fill="#ffeeeb"></path><path d="M0 342L20 342C40 342 80 342 120 339.5C160 337 200 332 240 331.8C280 331.7 320 336.3 360 333C400 329.7 440 318.3 480 313.3C520 308.3 560 309.7 600 315.5C640 321.3 680 331.7 720 333C760 334.3 800 326.7 840 323.8C880 321 920 323 940 324L960 325L960 351L940 351C920 351 880 351 840 351C800 351 760 351 720 351C680 351 640 351 600 351C560 351 520 351 480 351C440 351 400 351 360 351C320 351 280 351 240 351C200 351 160 351 120 351C80 351 40 351 20 351L0 351Z" fill="#ffffff"></path></svg>