<svg id="visual" viewBox="0 0 960 200" width="960" height="200" xmlns="http://www.w3.org/2000/svg" xmlns:xlink="http://www.w3.org/1999/xlink" version="1.1"><rect x="0" y="0" width="960" height="200" fill="#FA7268"></rect><path d="M0 79L96 69L192 44L288 46L384 92L480 78L576 74L672 98L768 53L864 86L960 93L960 201L864 201L768 201L672 201L576 201L480 201L384 201L288 201L192 201L96 201L0 201Z" fill="#ffffff"></path><path d="M0 66L96 78L192 100L288 83L384 107L480 94L576 65L672 82L768 55L864 65L960 79L960 201L864 201L768 201L672 201L576 201L480 201L384 201L288 201L192 201L96 201L0 201Z" fill="#e5e6e8"></path><path d="M0 78L96 94L192 78L288 107L384 92L480 105L576 97L672 111L768 98L864 86L960 103L960 201L864 201L768 201L672 201L576 201L480 201L384 201L288 201L192 201L96 201L0 201Z" fill="#ccced2"></path><path d="M0 116L96 97L192 102L288 126L384 115L480 96L576 93L672 80L768 92L864 87L960 108L960 201L864 201L768 201L672 201L576 201L480 201L384 201L288 201L192 201L96 201L0 201Z" fill="#b3b7bc"></path><path d="M0 135L96 126L192 103L288 121L384 128L480 110L576 133L672 121L768 117L864 94L960 111L960 201L864 201L768 201L672 201L576 201L480 201L384 201L288 201L192 201L96 201L0 201Z" fill="#9a9fa6"></path><path d="M0 122L96 133L192 141L288 110L384 108L480 139L576 104L672 141L768 138L864 129L960 140L960 201L864 201L768 201L672 201L576 201L480 201L384 201L288 201L192 201L96 201L0 201Z" fill="#838991"></path><path d="M0 131L96 137L192 149L288 143L384 145L480 129L576 119L672 133L768 123L864 116L960 132L960 201L864 201L768 201L672 201L576 201L480 201L384 201L288 201L192 201L96 201L0 201Z" fill="#6c737d"></path><path d="M0 147L96 140L192 140L288 151L384 138L480 152L576 129L672 154L768 162L864 128L960 151L960 201L864 201L768 201L672 201L576 201L480 201L384 201L288 201L192 201L96 201L0 201Z" fill="#555e69"></path><path d="M0 142L96 146L192 150L288 153L384 150L480 162L576 148L672 149L768 166L864 157L960 159L960 201L864 201L768 201L672 201L576 201L480 201L384 201L288 201L192 201L96 201L0 201Z" fill="#404a55"></path><path d="M0 156L96 173L192 168L288 152L384 164L480 156L576 155L672 174L768 175L864 162L960 173L960 201L864 201L768 201L672 201L576 201L480 201L384 201L288 201L192 201L96 201L0 201Z" fill="#2b3643"></path><path d="M0 171L96 182L192 168L288 175L384 176L480 180L576 181L672 175L768 187L864 168L960 188L960 201L864 201L768 201L672 201L576 201L480 201L384 201L288 201L192 201L96 201L0 201Z" fill="#172431"></path><path d="M0 194L96 182L192 186L288 176L384 186L480 181L576 177L672 195L768 182L864 182L960 192L960 201L864 201L768 201L672 201L576 201L480 201L384 201L288 201L192 201L96 201L0 201Z" fill="#001220"></path></svg>