<svg id="visual" viewBox="0 0 960 350" width="960" height="350" xmlns="http://www.w3.org/2000/svg" xmlns:xlink="http://www.w3.org/1999/xlink" version="1.1"><path d="M0 106L107 106L107 36L213 36L213 71L320 71L320 110L427 110L427 82L533 82L533 57L640 57L640 117L747 117L747 96L853 96L853 152L960 152L960 36L960 0L960 0L853 0L853 0L747 0L747 0L640 0L640 0L533 0L533 0L427 0L427 0L320 0L320 0L213 0L213 0L107 0L107 0L0 0Z" fill="#ffffff"></path><path d="M0 117L107 117L107 75L213 75L213 106L320 106L320 162L427 162L427 123L533 123L533 78L640 78L640 152L747 152L747 138L853 138L853 180L960 180L960 71L960 34L960 150L853 150L853 94L747 94L747 115L640 115L640 55L533 55L533 80L427 80L427 108L320 108L320 69L213 69L213 34L107 34L107 104L0 104Z" fill="#ffe3df"></path><path d="M0 222L107 222L107 232L213 232L213 257L320 257L320 211L427 211L427 208L533 208L533 208L640 208L640 173L747 173L747 180L853 180L853 218L960 218L960 232L960 69L960 178L853 178L853 136L747 136L747 150L640 150L640 76L533 76L533 121L427 121L427 160L320 160L320 104L213 104L213 73L107 73L107 115L0 115Z" fill="#ffc8c0"></path><path d="M0 285L107 285L107 278L213 278L213 285L320 285L320 239L427 239L427 253L533 253L533 257L640 257L640 229L747 229L747 225L853 225L853 253L960 253L960 274L960 230L960 216L853 216L853 178L747 178L747 171L640 171L640 206L533 206L533 206L427 206L427 209L320 209L320 255L213 255L213 230L107 230L107 220L0 220Z" fill="#ffaca2"></path><path d="M0 299L107 299L107 327L213 327L213 323L320 323L320 288L427 288L427 309L533 309L533 288L640 288L640 281L747 281L747 281L853 281L853 306L960 306L960 320L960 272L960 251L853 251L853 223L747 223L747 227L640 227L640 255L533 255L533 251L427 251L427 237L320 237L320 283L213 283L213 276L107 276L107 283L0 283Z" fill="#fe9084"></path><path d="M0 351L107 351L107 351L213 351L213 351L320 351L320 351L427 351L427 351L533 351L533 351L640 351L640 351L747 351L747 351L853 351L853 351L960 351L960 351L960 318L960 304L853 304L853 279L747 279L747 279L640 279L640 286L533 286L533 307L427 307L427 286L320 286L320 321L213 321L213 325L107 325L107 297L0 297Z" fill="#fa7268"></path></svg>